<svg xmlns="http://www.w3.org/2000/svg" viewBox="0 0 24 24" width="24" height="24" fill="none" stroke="#334155" stroke-width="1.7" stroke-linecap="round" stroke-linejoin="round">
<path stroke-width="1.4" d="M19.43 12.98c.04-.32.07-.64.07-.98s-.03-.66-.07-.98l2.11-1.65c.19-.15.24-.42.12-.64l-2-3.46a.5.5 0 0 0-.61-.22l-2.49 1a7.03 7.03 0 0 0-1.69-.98l-.38-2.65A.49.49 0 0 0 14 1h-4c-.25 0-.46.18-.49.42l-.38 2.65c-.61.25-1.17.59-1.69.98l-2.49-1a.5.5 0 0 0-.61.22l-2 3.46c-.13.22-.07.49.12.64l2.11 1.65c-.04.32-.07.65-.07.98s.03.66.07.98l-2.11 1.65c-.19.15-.24.42-.12.64l2 3.46c.12.22.39.3.61.22l2.49-1c.52.4 1.08.73 1.69.98l.38 2.65c.03.24.24.42.49.42h4c.25 0 .46-.18.49-.42l.38-2.65c.61-.25 1.17-.59 1.69-.98l2.49 1c.23.09.49 0 .61-.22l2-3.46c.12-.22.07-.49-.12-.64l-2.11-1.65Z"></path>
<circle cx="12" cy="12" r="3.1"></circle>
<circle cx="12" cy="12" r="1.15" fill="#f1592a" stroke="none"></circle>
</svg>
