<svg xmlns="http://www.w3.org/2000/svg" viewBox="0 0 24 24" width="24" height="24" fill="none" stroke="#334155" stroke-width="1.7" stroke-linecap="round" stroke-linejoin="round">
<path d="M3.6 14.5C3.6 9 9 6.5 13 7.4 19 8.6 20.6 14 18 17.4 15.4 20.8 4.4 19.8 3.6 14.5Z"></path>
<path d="M7 14.3C7 11 10 9.4 12.7 10 16 10.7 17 13.6 15.4 15.6 13.6 17.8 7.6 17.4 7 14.3Z"></path>
<path d="M10.2 14.2C10.2 12.6 11.5 11.9 12.8 12.2 14.4 12.6 14.6 14.2 13.7 15.2 12.6 16.4 10.4 16 10.2 14.2Z" stroke="#f1592a"></path>
</svg>
