<svg xmlns="http://www.w3.org/2000/svg" viewBox="0 0 24 24" width="24" height="24" fill="none" stroke="#334155" stroke-width="1.7" stroke-linecap="round" stroke-linejoin="round">
<rect x="10" y="9.4" width="4" height="5.2" rx="0.8"></rect>
<rect x="2.4" y="10" width="5.6" height="4" rx="0.6"></rect>
<path d="M4.27 10v4M6.13 10v4" stroke-width="1.2"></path>
<rect x="16" y="10" width="5.6" height="4" rx="0.6"></rect>
<path d="M17.87 10v4M19.73 10v4" stroke-width="1.2"></path>
<line x1="8" y1="12" x2="10" y2="12"></line>
<line x1="14" y1="12" x2="16" y2="12"></line>
<path d="M12 9.4V6.5"></path>
<circle cx="12" cy="5.8" r="1.05"></circle>
<path d="M13.7 4.6a3.2 3.2 0 0 1 1.3 2.3" stroke="#f1592a"></path>
<path d="M15.2 3.3a5.4 5.4 0 0 1 2 3.5" stroke="#f1592a"></path>
</svg>
